<?xml version="1.0" ?><svg stroke="maroon" id="Outline" viewBox="0 0 64 64" xmlns="http://www.w3.org/2000/svg"><g data-name="Outline" id="Outline-2"><path d="M21.971,60.531a4.966,4.966,0,0,0,6.281.639A4.966,4.966,0,0,0,31,62H57a5.006,5.006,0,0,0,5-5V29.962a4.974,4.974,0,0,0-1.421-3.492l-3.838-3.933a13.868,13.868,0,0,0,1.509-6.293A14.24,14.24,0,0,0,29.9,14.294l-3.693.026A4.988,4.988,0,0,0,22.7,15.79L3.512,34.978a5.02,5.02,0,0,0,0,7.093ZM59.147,27.866a2.986,2.986,0,0,1,.853,2.1V57a3,3,0,0,1-3,3H31a3,3,0,0,1-3-3V29.973a2.98,2.98,0,0,1,.864-2.105S38.7,17.957,41.933,14.607a3.034,3.034,0,0,1,4.283.01c1.455,1.523,5.885,6.029,5.885,6.029a9.443,9.443,0,0,1-3.462,3.563A6,6,0,1,0,44,34a5.959,5.959,0,0,0,5.85-4.8,14.137,14.137,0,0,0,5.835-4.883Zm-6.225-9.241s-3.97-4.039-5.274-5.4a5.059,5.059,0,0,0-7.14-.018c-.249.258-1.007,1.021-1.007,1.021l-4.526.033A9.2,9.2,0,0,1,44,7a9.305,9.305,0,0,1,9.25,9.256A8.693,8.693,0,0,1,52.922,18.625Zm-6.2,6.459a9.047,9.047,0,0,1-5.442,0,3.964,3.964,0,0,1,5.442,0ZM40.592,30.07a13.775,13.775,0,0,0,6.822-.007,3.976,3.976,0,0,1-6.822.007ZM44,4a12.2,12.2,0,0,1,8.626,20.884,12.159,12.159,0,0,1-12.614,2.934,3.959,3.959,0,0,1,.171-1A11.3,11.3,0,0,0,55.25,16.244,11.31,11.31,0,0,0,44,5a11.194,11.194,0,0,0-11.067,9.272l-1.015.007A12.287,12.287,0,0,1,44,4ZM4.926,36.392,24.114,17.2a3,3,0,0,1,2.112-.884l11.29-.081L27.439,26.463A4.972,4.972,0,0,0,26,29.973V57a4.958,4.958,0,0,0,.8,2.692,2.983,2.983,0,0,1-3.415-.575L4.926,40.657A3.019,3.019,0,0,1,4.926,36.392Z"/><path d="M38,44a4,4,0,1,0-4-4A4,4,0,0,0,38,44Zm0-6a2,2,0,1,1-2,2A2,2,0,0,1,38,38Z"/><path d="M50,48a4,4,0,1,0,4,4A4,4,0,0,0,50,48Zm0,6a2,2,0,1,1,2-2A2,2,0,0,1,50,54Z"/><path d="M53,40a2.983,2.983,0,0,0-.878-2.121,3.076,3.076,0,0,0-4.239,0S38.855,46.847,35.806,49.8a3.109,3.109,0,1,0,4.4,4.4c2.948-3.048,8.924-9.069,11.918-12.072A2.988,2.988,0,0,0,53,40Zm-2.3.711c-3.028,2.973-8.975,9.026-11.923,12.077a1.109,1.109,0,1,1-1.569-1.568c3.051-2.951,9.107-8.9,12.082-11.928a1,1,0,1,1,1.41,1.419Z"/></g></svg>